# xmcd CD database file
#
# Track frame offsets:
#	150
#	17362
#	33063
#	47656
#
# Disc length: 694 seconds
#
# Revision: 3
# Processed by: cddbd v1.5.1PL0 Copyright (c) Steve Scherf et al.
# Submitted via: CDex 1.51
#
DISCID=1e02b404
DTITLE=Eugenius - Womb Boy Returns
DYEAR=1900
DGENRE=Rock
TTITLE0=Womb Boy Returns
TTITLE1=Seven Out
TTITLE2=Bridge
TTITLE3=Sixty-Nine Minus Twelve
EXTD=
EXTT0=
EXTT1=
EXTT2=
EXTT3=
PLAYORDER=
